<svg viewBox="-73 0 511 511.99993" xmlns="http://www.w3.org/2000/svg"><path d="m366.011719 241.402344c0 95.824218-86.933594 270.597656-182.753907 270.597656-95.820312 0-182.753906-174.773438-182.753906-270.597656 0-95.820313 86.933594-133.464844 182.753906-133.464844 95.820313 0 182.753907 37.644531 182.753907 133.464844zm0 0" fill="#fd748c"/><path d="m283.847656 148.175781c0-14.222656-45.035156-25.753906-100.59375-25.753906-55.554687 0-100.59375 11.53125-100.59375 25.753906 0 14.222657 45.039063 25.753907 100.59375 25.753907 55.558594 0 100.59375-11.53125 100.59375-25.753907zm0 0" fill="#fc4265"/><path d="m213.457031 506.363281c-9.90625 3.652344-20.003906 5.636719-30.199219 5.636719-95.820312 0-182.757812-174.773438-182.757812-270.59375 0-95.828125 86.9375-133.46875 182.757812-133.46875 10.195313 0 20.292969.425781 30.199219 1.308594-83.144531 7.359375-152.554687 46.53125-152.554687 132.160156 0 85.621094 69.414062 234.28125 152.554687 264.957031zm0 0" fill="#fc4265"/><path d="m76.890625 296.734375c0 6.546875-1.582031 12.484375-4.160156 16.804687-2.617188 4.40625-6.25 7.136719-10.265625 7.136719-7.964844 0-14.417969-10.722656-14.417969-23.9375 0-13.21875 6.453125-23.941406 14.417969-23.941406.351562 0 .703125.019531 1.054687.070313 7.46875.894531 13.371094 11.246093 13.371094 23.867187zm0 0" fill="#ffae4d"/><path d="m63.519531 272.867188c2.003907 12.945312 5.125 26.648437 9.210938 40.671874-2.617188 4.410157-6.25 7.136719-10.265625 7.136719-7.964844 0-14.417969-10.722656-14.417969-23.9375 0-13.21875 6.453125-23.9375 14.417969-23.9375.351562-.003906.703125.015625 1.054687.066407zm0 0" fill="#ff9b36"/><path d="m158.289062 306.289062c0-13.222656-6.457031-23.941406-14.421874-23.941406-7.960938 0-14.417969 10.71875-14.417969 23.941406 0 13.222657 6.457031 23.941407 14.417969 23.941407 7.964843 0 14.421874-10.71875 14.421874-23.941407zm0 0" fill="#ffae4d"/><path d="m318.472656 296.738281c0-13.222656-6.457031-23.941406-14.421875-23.941406-7.964843 0-14.421875 10.71875-14.421875 23.941406 0 13.222657 6.457032 23.941407 14.421875 23.941407 7.964844 0 14.421875-10.71875 14.421875-23.941407zm0 0" fill="#ffae4d"/><path d="m237.066406 306.289062c0-13.222656-6.457031-23.941406-14.421875-23.941406-7.964843 0-14.417969 10.71875-14.417969 23.941406 0 13.222657 6.453126 23.941407 14.417969 23.941407 7.964844 0 14.421875-10.71875 14.421875-23.941407zm0 0" fill="#ffae4d"/><path d="m119.863281 387.804688c0 8.304687-2.554687 15.632812-6.429687 19.921874-2.285156 2.535157-5.035156 4.015626-7.996094 4.015626-7.960938 0-14.414062-10.71875-14.414062-23.9375 0-6.132813 1.386718-11.730469 3.683593-15.964844 2.628907-4.894532 6.464844-7.976563 10.730469-7.976563 7.964844 0 14.425781 10.722657 14.425781 23.941407zm0 0" fill="#ffae4d"/><path d="m113.433594 407.726562c-2.285156 2.535157-5.035156 4.015626-7.996094 4.015626-7.960938 0-14.414062-10.71875-14.414062-23.9375 0-6.132813 1.386718-11.730469 3.683593-15.964844 5.65625 12.25 11.929688 24.296875 18.726563 35.886718zm0 0" fill="#ff9b36"/><g fill="#ffae4d"><path d="m275.492188 387.804688c0-13.222657-6.453126-23.941407-14.417969-23.941407-7.964844 0-14.421875 10.71875-14.421875 23.941407 0 13.21875 6.457031 23.9375 14.421875 23.9375 7.964843 0 14.417969-10.71875 14.417969-23.9375zm0 0"/><path d="m197.679688 397.351562c0-13.222656-6.457032-23.941406-14.421876-23.941406-7.964843 0-14.421874 10.71875-14.421874 23.941406 0 13.222657 6.457031 23.941407 14.421874 23.941407 7.964844 0 14.421876-10.71875 14.421876-23.941407zm0 0"/><path d="m119.863281 211.902344c0-13.21875-6.457031-23.9375-14.421875-23.9375s-14.421875 10.71875-14.421875 23.9375c0 13.222656 6.457031 23.941406 14.421875 23.941406s14.421875-10.71875 14.421875-23.941406zm0 0"/><path d="m275.492188 211.902344c0-13.21875-6.453126-23.9375-14.417969-23.9375-7.964844 0-14.421875 10.71875-14.421875 23.9375 0 13.222656 6.457031 23.941406 14.421875 23.941406 7.964843 0 14.417969-10.71875 14.417969-23.941406zm0 0"/><path d="m197.679688 221.453125c0-13.222656-6.457032-23.941406-14.421876-23.941406-7.964843 0-14.421874 10.71875-14.421874 23.941406s6.457031 23.941406 14.421874 23.941406c7.964844 0 14.421876-10.71875 14.421876-23.941406zm0 0"/></g><path d="m98.515625 117.257812c13.855469 24.488282 41.796875 36.023438 67.910156 30.195313 5.863281-1.308594 11.640625-3.503906 17.152344-6.613281 30-16.980469 40.558594-55.066406 23.582031-85.0625-6.449218-11.394532-18.226562-24.027344-32-34.378906-22.496094-16.925782-50.320312-27.773438-68.925781-17.242188-30 16.976562-24.695313 83.101562-7.71875 113.101562zm0 0" fill="#479838"/><path d="m166.425781 147.453125c5.863281-1.308594 11.640625-3.503906 17.152344-6.613281 30-16.980469 40.558594-55.066406 23.582031-85.0625-6.449218-11.394532-18.226562-24.027344-32-34.378906-13.214844 13.546874-23.609375 28.96875-28.6875 41.9375-11.859375 30.238281-2.886718 63.585937 19.953125 84.117187zm0 0" fill="#317f21"/><path d="m179.117188 71.640625c14.238281 25.15625 9.117187 55.992187-10.589844 75.296875 5.140625-1.332031 10.210937-3.359375 15.050781-6.101562 30-16.976563 40.558594-55.0625 23.582031-85.0625-6.449218-11.390626-18.222656-24.023438-31.996094-34.375-7.273437 7.457031-13.703124 15.484374-18.851562 23.363281 9.742188 8.625 17.851562 18.125 22.804688 26.878906zm0 0" fill="#317f21"/><path d="m158.933594 68.230469c-12.582032 32.09375 3.230468 68.308593 35.324218 80.894531 32.09375 12.582031 68.308594-3.230469 80.894532-35.324219 12.582031-32.09375 8.527344-98.300781-23.5625-110.886719-32.09375-12.582031-80.070313 33.226563-92.65625 65.316407zm0 0" fill="#77bc4d"/></svg>